<?xml version="1.0" standalone="no"?>
<!DOCTYPE svg PUBLIC "-//W3C//DTD SVG 20010904//EN"
 "http://www.w3.org/TR/2001/REC-SVG-20010904/DTD/svg10.dtd">
<svg version="1.0" xmlns="http://www.w3.org/2000/svg"
 width="98.000000pt" height="98.000000pt" viewBox="0 0 98.000000 98.000000"
 preserveAspectRatio="xMidYMid meet">
<metadata>
Created by potrace 1.13, written by Peter Selinger 2001-2015
</metadata>
<g transform="translate(0.000000,98.000000) scale(0.100000,-0.100000)"
fill="#000000" stroke="none">
<path d="M50 967 c-50 -25 -50 -31 -48 -490 l3 -429 28 -24 28 -24 424 0 c290
0 432 4 448 11 14 6 30 22 36 36 7 16 11 158 11 448 l0 424 -24 28 -24 28
-429 3 c-331 1 -434 -1 -453 -11z m558 -243 c92 -46 145 -133 145 -240 -1
-113 -78 -217 -186 -249 -63 -19 -91 -19 -154 0 -107 32 -186 138 -186 250 -1
152 112 265 263 265 51 0 78 -6 118 -26z"/>
<path d="M388 672 c-83 -48 -134 -146 -92 -177 18 -13 18 -14 2 -15 -36 0 -14
-84 36 -138 23 -26 76 -56 118 -66 22 -5 27 -2 31 16 l4 23 8 -22 c6 -19 12
-22 34 -16 73 17 129 62 156 125 20 50 19 78 -2 78 -17 1 -16 2 1 15 42 31
-12 134 -93 179 -55 29 -91 34 -91 11 0 -8 -4 -15 -10 -15 -5 0 -10 7 -10 15
0 23 -40 18 -92 -13z"/>
</g>
</svg>
