<?xml version="1.0" standalone="no"?>
<!DOCTYPE svg PUBLIC "-//W3C//DTD SVG 20010904//EN"
 "http://www.w3.org/TR/2001/REC-SVG-20010904/DTD/svg10.dtd">
<svg version="1.0" xmlns="http://www.w3.org/2000/svg"
 width="98.000000pt" height="98.000000pt" viewBox="0 0 98.000000 98.000000"
 preserveAspectRatio="xMidYMid meet">
<metadata>
Created by potrace 1.13, written by Peter Selinger 2001-2015
</metadata>
<g transform="translate(0.000000,98.000000) scale(0.100000,-0.100000)"
fill="#000000" stroke="none">
<path d="M50 967 c-50 -25 -50 -31 -48 -490 l3 -429 28 -24 28 -24 424 0 c290
0 432 4 448 11 14 6 30 22 36 36 7 16 11 158 11 448 l0 424 -24 28 -24 28
-429 3 c-331 1 -434 -1 -453 -11z m608 -471 c2 -167 -1 -243 -9 -252 -9 -11
-45 -14 -154 -14 -79 0 -150 3 -159 6 -14 5 -16 37 -16 248 0 134 3 246 7 250
4 3 79 5 167 4 l161 -3 3 -239z"/>
<path d="M352 513 l3 -168 135 0 135 0 3 168 2 167 -140 0 -140 0 2 -167z"/>
</g>
</svg>
