<?xml version="1.0" standalone="no"?>
<!DOCTYPE svg PUBLIC "-//W3C//DTD SVG 20010904//EN"
 "http://www.w3.org/TR/2001/REC-SVG-20010904/DTD/svg10.dtd">
<svg version="1.0" xmlns="http://www.w3.org/2000/svg"
 width="97.000000pt" height="98.000000pt" viewBox="0 0 97.000000 98.000000"
 preserveAspectRatio="xMidYMid meet">
<metadata>
Created by potrace 1.13, written by Peter Selinger 2001-2015
</metadata>
<g transform="translate(0.000000,98.000000) scale(0.100000,-0.100000)"
fill="#000000" stroke="none">
<path d="M50 967 c-50 -25 -50 -31 -48 -490 l3 -429 28 -24 28 -24 419 0 c286
0 427 4 443 11 14 6 30 22 36 36 7 16 11 158 11 448 l0 424 -24 28 -24 28
-424 3 c-327 1 -429 -1 -448 -11z m511 -238 c96 -32 145 -110 136 -216 -5 -72
-11 -82 -35 -67 -12 8 -16 27 -17 80 0 84 -18 117 -78 145 -78 35 -184 13
-224 -47 -13 -20 -18 -48 -18 -97 -1 -55 -4 -71 -19 -79 -24 -14 -27 -8 -33
61 -10 104 35 183 122 215 49 18 121 20 166 5z m-173 -380 c3 -114 -5 -129
-61 -106 -44 19 -67 52 -67 97 1 64 46 113 100 107 25 -2 25 -4 28 -98z m272
84 c52 -30 65 -94 31 -149 -20 -32 -81 -62 -101 -49 -11 7 -14 197 -3 208 11
12 44 8 73 -10z"/>
</g>
</svg>
