<?xml version="1.0" standalone="no"?>
<!DOCTYPE svg PUBLIC "-//W3C//DTD SVG 20010904//EN"
 "http://www.w3.org/TR/2001/REC-SVG-20010904/DTD/svg10.dtd">
<svg version="1.0" xmlns="http://www.w3.org/2000/svg"
 width="97.000000pt" height="98.000000pt" viewBox="0 0 97.000000 98.000000"
 preserveAspectRatio="xMidYMid meet">
<metadata>
Created by potrace 1.13, written by Peter Selinger 2001-2015
</metadata>
<g transform="translate(0.000000,98.000000) scale(0.100000,-0.100000)"
fill="#000000" stroke="none">
<path d="M50 967 c-50 -25 -50 -31 -48 -490 l3 -429 28 -24 28 -24 419 0 c286
0 427 4 443 11 14 6 30 22 36 36 7 16 11 158 11 448 l0 424 -24 28 -24 28
-424 3 c-327 1 -429 -1 -448 -11z m630 -272 c52 -27 76 -105 49 -158 -16 -32
-119 -136 -151 -153 -39 -20 -42 -18 -19 15 12 16 24 44 28 63 3 18 23 52 44
75 22 24 39 47 39 53 0 13 -37 50 -51 50 -18 0 -149 -132 -149 -150 0 -20 -47
-66 -57 -56 -5 4 -8 30 -8 57 0 49 1 51 86 134 77 76 90 85 123 85 20 0 50 -7
66 -15z m-275 -130 c-14 -21 -25 -47 -25 -58 0 -11 -18 -39 -40 -63 -22 -24
-40 -50 -40 -58 0 -20 28 -46 48 -46 20 0 142 119 142 139 0 16 48 71 61 71
15 0 21 -69 9 -104 -14 -44 -146 -171 -185 -178 -76 -15 -145 42 -145 119 0
43 4 49 78 125 97 100 149 128 97 53z"/>
</g>
</svg>
