<?xml version="1.0" standalone="no"?>
<!DOCTYPE svg PUBLIC "-//W3C//DTD SVG 20010904//EN"
 "http://www.w3.org/TR/2001/REC-SVG-20010904/DTD/svg10.dtd">
<svg version="1.0" xmlns="http://www.w3.org/2000/svg"
 width="98.000000pt" height="98.000000pt" viewBox="0 0 98.000000 98.000000"
 preserveAspectRatio="xMidYMid meet">
<metadata>
Created by potrace 1.13, written by Peter Selinger 2001-2015
</metadata>
<g transform="translate(0.000000,98.000000) scale(0.100000,-0.100000)"
fill="#000000" stroke="none">
<path d="M50 967 c-50 -25 -50 -31 -48 -490 l3 -429 28 -24 28 -24 424 0 c290
0 432 4 448 11 14 6 30 22 36 36 7 16 11 158 11 448 l0 424 -24 28 -24 28
-429 3 c-331 1 -434 -1 -453 -11z m543 -409 l-103 -102 -98 94 c-55 52 -100
98 -101 103 0 4 90 7 201 7 l203 0 -102 -102z m-258 22 l70 -70 -78 -78 -77
-77 0 148 c0 81 3 147 8 147 4 0 39 -32 77 -70z m395 -77 l0 -148 -77 77 -78
78 70 70 c38 38 73 70 77 70 5 0 8 -66 8 -147z m-280 -38 c30 -32 47 -31 82 2
l28 27 80 -79 c44 -44 80 -83 80 -87 0 -5 -103 -8 -230 -8 -126 0 -230 3 -230
7 0 9 152 163 161 163 3 0 16 -11 29 -25z"/>
</g>
</svg>
