<?xml version="1.0" standalone="no"?>
<!DOCTYPE svg PUBLIC "-//W3C//DTD SVG 20010904//EN"
 "http://www.w3.org/TR/2001/REC-SVG-20010904/DTD/svg10.dtd">
<svg version="1.0" xmlns="http://www.w3.org/2000/svg"
 width="98.000000pt" height="98.000000pt" viewBox="0 0 98.000000 98.000000"
 preserveAspectRatio="xMidYMid meet">
<metadata>
Created by potrace 1.13, written by Peter Selinger 2001-2015
</metadata>
<g transform="translate(0.000000,98.000000) scale(0.100000,-0.100000)"
fill="#000000" stroke="none">
<path d="M50 967 c-50 -25 -50 -31 -48 -490 l3 -429 28 -24 28 -24 424 0 c290
0 432 4 448 11 14 6 30 22 36 36 7 16 11 158 11 448 l0 424 -24 28 -24 28
-429 3 c-331 1 -434 -1 -453 -11z m616 -269 c64 -61 77 -91 52 -116 -21 -21
-39 -13 -104 49 -68 66 -83 92 -64 114 23 27 51 15 116 -47z m-62 -67 l38 -39
-44 -65 -43 -66 -62 61 -62 62 62 42 c34 24 64 43 67 43 3 1 23 -16 44 -38z
m-127 -103 c47 -46 89 -91 94 -100 13 -25 -6 -58 -34 -58 -30 0 -197 167 -197
197 0 20 22 42 44 43 5 0 47 -37 93 -82z"/>
</g>
</svg>
