<?xml version="1.0" standalone="no"?><svg width="453" height="302" viewBox="0 0 453 302" xmlns="http://www.w3.org/2000/svg" xmlns:xlink="http://www.w3.org/1999/xlink"><svg version="1" width="150.67" height="150.67" viewBox="-10 -10 118 118" id="img--svg-sprites--clock"><g transform="matrix(.1 0 0 -.1 0 98)"><path d="M50 967C0 942 0 936 2 477L5 48l28-24L61 0h424c290 0 432 4 448 11 14 6 30 22 36 36 7 16 11 158 11 448v424l-24 28-24 28-429 3c-331 1-434-1-453-11zm558-243c92-46 145-133 145-240-1-113-78-217-186-249-63-19-91-19-154 0-107 32-186 138-186 250-1 152 112 265 263 265 51 0 78-6 118-26z"/><path d="M388 672c-83-48-134-146-92-177 18-13 18-14 2-15-36 0-14-84 36-138 23-26 76-56 118-66 22-5 27-2 31 16l4 23 8-22c6-19 12-22 34-16 73 17 129 62 156 125 20 50 19 78-2 78-17 1-16 2 1 15 42 31-12 134-93 179-55 29-91 34-91 11 0-8-4-15-10-15-5 0-10 7-10 15 0 23-40 18-92-13z"/></g></svg><svg version="1" width="150.67" height="150.67" viewBox="-10 -10 118 118" id="img--svg-sprites--device" x="150.67"><g transform="matrix(.1 0 0 -.1 0 98)"><path d="M50 967C0 942 0 936 2 477L5 48l28-24L61 0h424c290 0 432 4 448 11 14 6 30 22 36 36 7 16 11 158 11 448v424l-24 28-24 28-429 3c-331 1-434-1-453-11zm608-471c2-167-1-243-9-252-9-11-45-14-154-14-79 0-150 3-159 6-14 5-16 37-16 248 0 134 3 246 7 250 4 3 79 5 167 4l161-3 3-239z"/><path d="M352 513l3-168h270l3 168 2 167H350l2-167z"/></g></svg><svg version="1" width="149.33" height="150.67" viewBox="-10 -10 117 118" id="img--svg-sprites--headphones" y="150.67"><path d="M5 1.3C0 3.8 0 4.4.2 50.3l.3 42.9 2.8 2.4L6.1 98H48c28.6 0 42.7-.4 44.3-1.1 1.4-.6 3-2.2 3.6-3.6.7-1.6 1.1-15.8 1.1-44.8V6.1l-2.4-2.8L92.2.5 49.8.2C17.1.1 6.9.3 5 1.3zm51.1 23.8c9.6 3.2 14.5 11 13.6 21.6-.5 7.2-1.1 8.2-3.5 6.7-1.2-.8-1.6-2.7-1.7-8 0-8.4-1.8-11.7-7.8-14.5-7.8-3.5-18.4-1.3-22.4 4.7-1.3 2-1.8 4.8-1.8 9.7-.1 5.5-.4 7.1-1.9 7.9-2.4 1.4-2.7.8-3.3-6.1-1-10.4 3.5-18.3 12.2-21.5 4.9-1.8 12.1-2 16.6-.5zm-17.3 38c.3 11.4-.5 12.9-6.1 10.6-4.4-1.9-6.7-5.2-6.7-9.7.1-6.4 4.6-11.3 10-10.7 2.5.2 2.5.4 2.8 9.8zM66 54.7c5.2 3 6.5 9.4 3.1 14.9-2 3.2-8.1 6.2-10.1 4.9-1.1-.7-1.4-19.7-.3-20.8 1.1-1.2 4.4-.8 7.3 1z"/></svg><svg version="1" width="149.33" height="150.67" viewBox="-10 -10 117 118" id="img--svg-sprites--link" x="149.33" y="150.67"><path d="M5 1.3C0 3.8 0 4.4.2 50.3l.3 42.9 2.8 2.4L6.1 98H48c28.6 0 42.7-.4 44.3-1.1 1.4-.6 3-2.2 3.6-3.6.7-1.6 1.1-15.8 1.1-44.8V6.1l-2.4-2.8L92.2.5 49.8.2C17.1.1 6.9.3 5 1.3zm63 27.2c5.2 2.7 7.6 10.5 4.9 15.8-1.6 3.2-11.9 13.6-15.1 15.3-3.9 2-4.2 1.8-1.9-1.5 1.2-1.6 2.4-4.4 2.8-6.3.3-1.8 2.3-5.2 4.4-7.5 2.2-2.4 3.9-4.7 3.9-5.3 0-1.3-3.7-5-5.1-5C60.1 34 47 47.2 47 49c0 2-4.7 6.6-5.7 5.6-.5-.4-.8-3-.8-5.7 0-4.9.1-5.1 8.6-13.4 7.7-7.6 9-8.5 12.3-8.5 2 0 5 .7 6.6 1.5zm-27.5 13c-1.4 2.1-2.5 4.7-2.5 5.8 0 1.1-1.8 3.9-4 6.3s-4 5-4 5.8c0 2 2.8 4.6 4.8 4.6S49 52.1 49 50.1c0-1.6 4.8-7.1 6.1-7.1 1.5 0 2.1 6.9.9 10.4-1.4 4.4-14.6 17.1-18.5 17.8C29.9 72.7 23 67 23 59.3c0-4.3.4-4.9 7.8-12.5 9.7-10 14.9-12.8 9.7-5.3z"/></svg><svg version="1" width="150.67" height="150.67" viewBox="-10 -10 118 118" id="img--svg-sprites--mail" x="301.34"><path d="M5 1.3C0 3.8 0 4.4.2 50.3l.3 42.9 2.8 2.4L6.1 98h42.4c29 0 43.2-.4 44.8-1.1 1.4-.6 3-2.2 3.6-3.6.7-1.6 1.1-15.8 1.1-44.8V6.1l-2.4-2.8L93.2.5 50.3.2C17.2.1 6.9.3 5 1.3zm54.3 40.9L49 52.4 39.2 43c-5.5-5.2-10-9.8-10.1-10.3 0-.4 9-.7 20.1-.7h20.3L59.3 42.2zM33.5 40l7 7-7.8 7.8-7.7 7.7V47.7c0-8.1.3-14.7.8-14.7.4 0 3.9 3.2 7.7 7zM73 47.7v14.8l-7.7-7.7-7.8-7.8 7-7c3.8-3.8 7.3-7 7.7-7 .5 0 .8 6.6.8 14.7zm-28 3.8c3 3.2 4.7 3.1 8.2-.2l2.8-2.7 8 7.9c4.4 4.4 8 8.3 8 8.7 0 .5-10.3.8-23 .8-12.6 0-23-.3-23-.7C26 64.4 41.2 49 42.1 49c.3 0 1.6 1.1 2.9 2.5z"/></svg><svg version="1" width="150.67" height="150.67" viewBox="-10 -10 118 118" id="img--svg-sprites--pin" x="301.34" y="150.67"><path d="M5 1.3C0 3.8 0 4.4.2 50.3l.3 42.9 2.8 2.4L6.1 98h42.4c29 0 43.2-.4 44.8-1.1 1.4-.6 3-2.2 3.6-3.6.7-1.6 1.1-15.8 1.1-44.8V6.1l-2.4-2.8L93.2.5 50.3.2C17.2.1 6.9.3 5 1.3zm61.6 26.9c6.4 6.1 7.7 9.1 5.2 11.6-2.1 2.1-3.9 1.3-10.4-4.9-6.8-6.6-8.3-9.2-6.4-11.4 2.3-2.7 5.1-1.5 11.6 4.7zm-6.2 6.7l3.8 3.9-4.4 6.5-4.3 6.6-6.2-6.1-6.2-6.2 6.2-4.2c3.4-2.4 6.4-4.3 6.7-4.3.3-.1 2.3 1.6 4.4 3.8zM47.7 45.2c4.7 4.6 8.9 9.1 9.4 10 1.3 2.5-.6 5.8-3.4 5.8-3 0-19.7-16.7-19.7-19.7 0-2 2.2-4.2 4.4-4.3.5 0 4.7 3.7 9.3 8.2z"/></svg></svg>